 <svg class="w-16 h-16 text-gray-600 mb-4" viewBox="0 0 24 24" fill="currentColor" xmlns="http://www.w3.org/2000/svg">
                    <path d="M12 2C13.1046 2 14 2.89543 14 4C14 5.10457 13.1046 6 12 6C10.8954 6 10 5.10457 10 4C10 2.89543 10.8954 2 12 2Z"/>
                    <path d="M6 8C7.10457 8 8 8.89543 8 10C8 11.1046 7.10457 12 6 12C4.89543 12 4 11.1046 4 10C4 8.89543 4.89543 8 6 8Z"/>
                    <path d="M18 8C19.1046 8 20 8.89543 20 10C20 11.1046 19.1046 12 18 12C16.8954 12 16 11.1046 16 10C16 8.89543 16.8954 8 18 8Z"/>
                    <path d="M12 11L16.5 14M12 6V11M12 11L7.5 14M7.5 14L6 12M7.5 14L12 18L16.5 14M16.5 14L18 12"/>
                    <path fill-rule="evenodd" clip-rule="evenodd" d="M12 22C14.2091 22 16 20.2091 16 18C16 15.7909 14.2091 14 12 14C9.79086 14 8 15.7909 8 18C8 20.2091 9.79086 22 12 22ZM12 20C13.1046 20 14 19.1046 14 18C14 16.8954 13.1046 16 12 16C10.8954 16 10 16.8954 10 18C10 19.1046 10.8954 20 12 20Z"/>
                </svg>