   <svg class="w-16 h-16 text-gray-600 mb-4" viewBox="0 0 24 24" fill="currentColor" xmlns="http://www.w3.org/2000/svg">
                    <path fill-rule="evenodd" clip-rule="evenodd" d="M4 3C4 2.44772 4.44772 2 5 2H19C19.5523 2 20 2.44772 20 3V15C20 15.5523 19.5523 16 19 16H8.93201L4.41421 20.5178C3.82843 21.1036 3 20.6903 3 19.8284V4C3 3.44772 3.44772 3 4 3ZM6 7C5.44772 7 5 7.44772 5 8C5 8.55228 5.44772 9 6 9H18C18.5523 9 19 8.55228 19 8C19 7.44772 18.5523 7 18 7H6ZM6 11C5.44772 11 5 11.4477 5 12C5 12.5523 5.44772 13 6 13H14C14.5523 13 15 12.5523 15 12C15 11.4477 14.5523 11 14 11H6Z"/>
                </svg>