<svg class="w-16 h-16 text-gray-600 mb-4" viewBox="0 0 24 24" fill="currentColor" xmlns="http://www.w3.org/2000/svg">
                    <path fill-rule="evenodd" clip-rule="evenodd" d="M12 2C6.47715 2 2 6.47715 2 12C2 17.5228 6.47715 22 12 22C17.5228 22 22 17.5228 22 12C22 6.47715 17.5228 2 12 2ZM12 20C7.58172 20 4 16.4183 4 12C4 7.58172 7.58172 4 12 4C16.4183 4 20 7.58172 20 12C20 16.4183 16.4183 20 12 20Z"/>
                    <path d="M16 14.5C16 16.433 14.2091 18 12 18C9.79086 18 8 16.433 8 14.5C8 14.2239 8.22386 14 8.5 14H15.5C15.7761 14 16 14.2239 16 14.5Z"/>
                    <circle cx="9" cy="10" r="1.25"/>
                    <circle cx="15" cy="10" r="1.25"/>
                </svg>