 <svg class="w-16 h-16 text-gray-600 mb-4" viewBox="0 0 24 24" fill="currentColor" xmlns="http://www.w3.org/2000/svg">
                    <path d="M12 12C14.2091 12 16 10.2091 16 8C16 5.79086 14.2091 4 12 4C9.79086 4 8 5.79086 8 8C8 10.2091 9.79086 12 12 12ZM12 14C8.68629 14 6 16.6863 6 20H18C18 16.6863 15.3137 14 12 14Z"/>
                    <path d="M18.5 12C19.8807 12 21 10.8807 21 9.5C21 8.11929 19.8807 7 18.5 7C17.1193 7 16 8.11929 16 9.5C16 10.8807 17.1193 12 18.5 12Z" opacity="0.7"/>
                    <path d="M18.5 14C16.8431 14 15.5 15.3431 15.5 17H21.5C21.5 15.3431 20.1569 14 18.5 14Z" opacity="0.7"/>
                    <path d="M5.5 12C6.88071 12 8 10.8807 8 9.5C8 8.11929 6.88071 7 5.5 7C4.11929 7 3 8.11929 3 9.5C3 10.8807 4.11929 12 5.5 12Z" opacity="0.7"/>
                    <path d="M5.5 14C3.84315 14 2.5 15.3431 2.5 17H8.5C8.5 15.3431 7.15685 14 5.5 14Z" opacity="0.7"/>
                </svg>